<?xml version="1.0" ?><!-- Uploaded to: SVG Repo, www.svgrepo.com, Generator: SVG Repo Mixer Tools -->
<svg fill="#000000" width="800px" height="800px" viewBox="0 0 24 24" data-name="Layer 1" id="Layer_1" xmlns="http://www.w3.org/2000/svg"><title/><path d="M20,14a5,5,0,0,0-1.54-3.6L19.13,5H6.22l-.4-2H2V5H4.18L5.8,13.11A2.49,2.49,0,0,0,6.5,18H12v0a4.93,4.93,0,0,0,5.75.19l3.54,3.54,1.41-1.41-3.54-3.54A5,5,0,0,0,20,14ZM16.58,9.28A4.93,4.93,0,0,0,15,9V7h1.87ZM7.82,13l-.4-2H9v2ZM11,11h0l0,0Zm0-2V7h2V9ZM9,7V9H7l-.4-2ZM6,15.5a.5.5,0,0,1,.5-.5h3.6a4.94,4.94,0,0,0,.32,1H6.5A.5.5,0,0,1,6,15.5ZM15,17a3,3,0,1,1,3-3A3,3,0,0,1,15,17Z"/><rect height="2" width="2" x="7" y="19"/></svg>